<?xml version="1.0" encoding="UTF-8"?> <svg xmlns="http://www.w3.org/2000/svg" width="76" height="77" viewBox="0 0 76 77" fill="none"><path d="M54.8054 55.6209C55.5555 52.5067 56.0216 49.3308 56.198 46.1324C56.2666 44.8426 56.2666 43.5502 56.198 42.2604C60.6974 42.6583 67.0639 47.0506 67.0639 49.3615C67.0639 51.6724 63.039 49.9125 54.8207 55.6209H54.8054ZM32.4461 23.8803C29.3853 25.2576 24.9624 21.8448 22.7586 17.0393C20.5549 12.2339 21.6108 8.16298 24.5951 6.78561C27.5794 5.40825 31.3901 7.27535 33.5939 12.0655C35.7977 16.8557 35.4304 22.5029 32.4461 23.8803ZM23.5085 28.1501C21.9781 29.956 18.1062 29.1755 15.3209 26.8033C12.5355 24.4312 12.0458 21.4928 13.5915 19.6869C15.1372 17.8811 18.1827 17.8811 20.8916 20.2685C23.6004 22.6559 25.0543 26.3901 23.5085 28.1501ZM70.9512 26.5126C64.3092 31.4405 55.6471 32.7719 52.5863 28.701C49.5255 24.6302 53.3362 16.6567 59.9628 11.7135C60.5138 11.3156 61.0647 10.9483 61.6004 10.6116C58.6794 7.9411 55.3461 5.7602 51.7293 4.15331C52.9616 6.81108 53.2216 9.81719 52.4639 12.6471C51.0865 18.9983 46.5718 24.2782 42.5927 23.3599C38.6137 22.4417 36.6854 15.815 38.0015 9.46382C38.2355 7.85783 38.8014 6.31815 39.6629 4.94278C40.5245 3.5674 41.663 2.38645 43.0059 1.4751C40.949 1.11761 38.865 0.938404 36.7772 0.939458C30.2132 0.939624 23.7691 2.69885 18.1155 6.03406C12.462 9.36927 7.80549 14.1586 4.6306 19.9037C1.4557 25.6488 -0.121591 32.1398 0.0628449 38.7012C0.247281 45.2627 2.18671 51.6548 5.67932 57.2125C11.8009 39.3374 26.4316 25.4107 40.4349 26.8952C49.6938 27.8746 54.5911 35.1135 53.9789 46.316C53.3668 57.2431 48.546 67.8642 42.0877 74.0164C47.4137 73.2402 52.504 71.303 56.9984 68.3418C61.4929 65.3807 65.2816 61.4679 68.0966 56.8805C70.9116 52.2931 72.6839 47.143 73.2883 41.7948C73.8926 36.4466 73.3142 31.0309 71.5939 25.931L70.9206 26.4513" fill="#DD0031"></path><path d="M42.0571 40.2099C44.0313 40.2099 44.0772 41.9851 44.0619 42.7657C44.0619 46.0713 39.9604 50.1269 37.9403 47.0202C36.8843 44.6327 39.4707 40.2864 41.9806 40.2099H42.0571ZM19.4836 65.9207C20.0499 57.58 24.7788 51.7032 27.1356 50.9533C27.4838 50.8225 27.8587 50.7794 28.2275 50.8278C28.5962 50.8763 28.9473 51.0147 29.2499 51.231C29.5524 51.4473 29.797 51.7348 29.9621 52.0681C30.1272 52.4013 30.2077 52.7701 30.1964 53.1418C29.9516 56.2026 26.0337 58.3758 25.391 66.0737C25.0849 69.6243 26.3245 73.7258 30.2577 73.8635C38.782 74.338 46.8473 58.0391 47.4594 46.8671C47.9951 37.2256 44.5057 32.7874 39.4554 32.2977C27.3805 31.1193 14.8159 47.112 10.3777 63.5639C13.069 66.2856 16.1667 68.5728 19.5601 70.3436C19.3042 68.884 19.2323 67.3982 19.3459 65.9207" fill="#DD0031"></path><g clip-path="url(#clip0_4676_2671)"><path d="M66.4706 74.72C65.8751 74.7179 65.2936 74.5371 64.7995 74.2006C64.3054 73.864 63.9209 73.3868 63.6944 72.8292C63.468 72.2715 63.4099 71.6584 63.5273 71.0673C63.6448 70.4762 63.9326 69.9336 64.3545 69.5081C64.7763 69.0825 65.3132 68.793 65.8974 68.6762C66.4816 68.5593 67.0869 68.6204 67.6369 68.8516C68.1868 69.0828 68.6568 69.4739 68.9874 69.9753C69.3181 70.4768 69.4945 71.0662 69.4945 71.6692C69.4945 72.0707 69.4162 72.4683 69.2641 72.8392C69.112 73.21 68.8891 73.5468 68.6082 73.8303C68.3272 74.1137 67.9938 74.3382 67.627 74.4909C67.2602 74.6436 66.8672 74.7214 66.4706 74.72ZM66.4706 67.8692C65.7279 67.867 65.0012 68.088 64.3826 68.5043C63.764 68.9205 63.2813 69.5133 62.9956 70.2074C62.7099 70.9016 62.634 71.666 62.7776 72.4038C62.9212 73.1417 63.2778 73.8198 63.8022 74.3523C64.3267 74.8848 64.9954 75.2478 65.7237 75.3953C66.4521 75.5428 67.2072 75.4682 67.8936 75.1809C68.58 74.8936 69.1668 74.4066 69.5797 73.7815C69.9926 73.1563 70.213 72.4212 70.213 71.6692C70.2102 70.6641 69.8153 69.7008 69.1144 68.9891C68.4135 68.2774 67.4633 67.8749 66.4706 67.8692Z" fill="#DD0031"></path><path d="M65.8381 72.278H66.3099C66.437 72.2858 66.5628 72.3076 66.6852 72.3431C66.7543 72.3674 66.8177 72.406 66.8712 72.4565C66.9248 72.5069 66.9674 72.5682 66.9962 72.6363C67.0445 72.7943 67.0662 72.9595 67.0605 73.1249C67.0646 73.3075 67.0862 73.4893 67.1248 73.6677H68.1972V73.5591C68.1876 73.5199 68.1876 73.4789 68.1972 73.4397C68.1972 73.4397 68.1972 73.3637 68.1972 73.3203V72.9729C68.2117 72.8073 68.1861 72.6406 68.1226 72.4874C68.059 72.3341 67.9595 72.1989 67.8326 72.0934C67.6542 71.9681 67.4478 71.8898 67.2321 71.8654C67.4958 71.8473 67.7488 71.7531 67.9612 71.594C68.0664 71.5094 68.149 71.3996 68.2014 71.2744C68.2538 71.1492 68.2745 71.0127 68.2615 70.8774C68.2738 70.6828 68.227 70.4889 68.1273 70.322C68.0276 70.1551 67.8798 70.0231 67.7039 69.9437C67.4418 69.8166 67.1576 69.7428 66.8675 69.7266H64.8408V73.7111H65.9131L65.8381 72.278ZM66.9104 71.4203C66.7282 71.5258 66.5194 71.5749 66.3099 71.5614H65.881V70.454H66.0847C66.2983 70.4441 66.512 70.4697 66.7174 70.53C66.8165 70.5566 66.9041 70.6158 66.9662 70.6984C67.0283 70.781 67.0615 70.8822 67.0605 70.986C67.07 71.0762 67.0551 71.1673 67.0173 71.2496C66.9795 71.3318 66.9203 71.4021 66.846 71.4528" fill="#DD0031"></path></g><defs><clipPath id="clip0_4676_2671"><rect width="7.50618" height="7.6" fill="white" transform="translate(62.7068 67.8691)"></rect></clipPath></defs></svg> 